<?xml version="1.0" encoding="utf-8"?>
<svg viewBox="0 0 500 500" xmlns="http://www.w3.org/2000/svg">
  <g id="g112" transform="matrix(0.74441, 0, 0, 0.74441, -75.189296, -9.582685)" style="">
    <g id="g1170" transform="matrix(1, 0, 0, 1, 101.944, 13.849055)">
      <path style="fill:#3c9fe2;stroke-width:1.33333" d="M 242.46 378.333 C 240.779 375.95 230.839 362.47 220.369 348.377 C 209.899 334.284 201.333 322.041 201.333 321.169 C 201.333 319.979 206.062 319.802 220.333 320.454 C 230.783 320.932 247.494 321.326 257.467 321.328 L 275.601 321.333 L 279.801 328.089 C 282.11 331.804 289.951 342.467 291.191 344.667 C 292.431 346.867 295.827 351.93 298.739 355.917 C 301.65 359.905 303.575 363.571 303.016 364.064 C 301.603 365.309 249.705 382.666 247.394 382.666 C 246.36 382.666 244.14 380.716 242.46 378.333 Z M 361.333 343.528 C 361.333 343.268 362.683 341.554 364.333 339.718 C 365.983 337.882 368.969 333.595 370.967 330.19 L 374.601 324 L 395.967 324 C 409.322 324 417.333 324.5 417.333 325.333 C 417.333 326.067 417.183 326.668 417 326.669 C 416.817 326.67 405.005 330.571 390.752 335.336 C 367.034 343.266 361.333 344.853 361.333 343.528 Z" id="path1180"/>
      <path style="fill:#fca400;stroke-width:1.33333" d="M 324 449.283 C 306.033 448.789 265.059 447.902 232.946 447.311 C 200.832 446.72 174.303 445.824 173.992 445.32 C 173.459 444.458 177.369 417.241 178.18 416.165 C 178.624 415.577 232.98 396.961 244.667 393.395 C 251.418 391.335 283.207 380.299 303.24 373.389 L 309.973 371.186 L 313.773 376.033 C 316.068 378.493 318.914 381.857 320.033 383.507 C 323.573 388.73 329.364 387.491 334.306 380.734 C 336.586 377.617 339.56 373.324 341.438 371.193 C 343.317 369.063 344.534 367.302 344.534 366.697 C 344.534 363.873 353.51 355.496 358.038 354.646 C 363.477 353.626 365.171 354.765 374.809 368.796 C 377.454 372.646 385.768 383.706 393.077 393.479 C 420.207 429.757 417.504 421.266 417.333 438.61 L 417.333 450.667 L 387 450.423 C 370.317 450.289 341.967 449.776 324 449.283 Z" id="path1178"/>
      <path style="fill:#f05655;stroke-width:1.33333" d="M 321.529 380.6 C 319.514 378.466 318.24 376.49 317.76 375.798 C 317.28 375.106 316.39 374.133 315.596 373.227 C 314.802 372.321 313.298 370.796 311.181 367.694 C 309.065 364.592 304.195 357.842 300.359 352.694 C 296.523 347.546 265.333 298.172 265.333 293.5 C 265.333 292.599 264.169 289.643 262.746 286.931 C 259.111 280.002 256.37 273.343 255.231 268.667 C 254.695 266.467 253.868 264.367 253.395 264 C 252.921 263.633 251.454 258.533 250.134 252.667 C 242.002 216.505 243.716 195.61 256.623 173.587 C 266.247 157.167 292.285 137.333 304.218 137.333 C 306.005 137.333 308.103 136.697 308.881 135.919 C 310.64 134.16 339.44 134.985 348 137.04 C 371.838 142.762 393.253 163.707 403.51 191.333 C 408.292 204.215 406.13 245.557 400.056 257.377 C 399.478 258.501 398.561 261.501 398.017 264.044 C 396.916 269.187 391.646 282.747 388.625 288.206 C 387.548 290.152 386.667 292.396 386.667 293.193 C 386.667 295.523 380.928 308 379.856 308 C 379.318 308 378.474 309.841 377.98 312.09 C 377.486 314.34 376.238 316.504 375.208 316.899 C 374.177 317.295 373.333 318.147 373.333 318.792 C 373.333 320.56 362.273 338.667 361.192 338.667 C 360.676 338.667 358.696 341.324 356.792 344.572 C 354.889 347.821 352.582 351.271 351.666 352.239 C 350.75 353.208 347.359 357.9 344.132 362.667 C 340.904 367.433 337.58 371.933 336.744 372.667 C 335.909 373.4 333.528 376.25 331.454 379 C 326.916 385.018 326.27 385.624 321.529 380.6 Z M 338.199 242.57 C 352.012 235.841 359.828 221.137 355.987 209.106 C 345.602 176.569 304.513 177.116 295.743 209.908 C 291.479 225.851 308.15 246.121 325.895 246.568 C 328.037 246.622 333.574 244.823 338.199 242.57 Z" id="path1176"/>
      <path style="fill:#00c144;stroke-width:1.33333" d="M 306.402 619.291 C 306.097 618.986 302.922 618.386 299.346 617.956 C 295.77 617.527 285.004 615.4 275.422 613.23 C 239.485 605.09 231.34 602.386 209.087 591.21 C 202.628 587.966 197.053 585.291 196.696 585.265 C 183.866 584.329 133.47 543.864 112.195 517.415 C 60.636 453.315 39.281 370.009 54.801 293.52 C 57.693 279.269 57.84 277.333 56.033 277.333 C 55.318 277.333 50.818 275.533 46.033 273.333 C 33.275 267.467 21.697 262.162 12.898 258.151 C 8.626 256.204 5.349 253.952 5.617 253.148 C 6.109 251.672 22.114 245.284 60 231.441 C 71.367 227.288 82.767 223.05 85.333 222.023 C 119.895 208.203 133.333 204.298 133.333 208.075 C 133.333 209.124 138.737 224.032 148.529 250 C 149.635 252.933 154.843 266.733 160.104 280.667 C 174.47 318.719 178.686 330.89 177.927 332.119 C 177.113 333.435 175.163 332.719 159.333 325.291 C 152.733 322.194 142.833 317.675 137.333 315.248 L 127.333 310.837 L 126.215 313.752 C 124.173 319.077 123.572 353.436 125.266 368 C 130.393 412.07 150.165 452.895 181.425 483.957 C 195.58 498.022 206.927 508 208.767 508 C 209.307 508 211.605 509.412 213.874 511.139 C 223.171 518.21 252.093 531.748 266 535.537 C 313.287 548.42 350.392 549.346 391.087 538.659 C 398.426 536.732 398.659 536.894 401.656 546 C 415.611 588.403 420.272 604.604 419.066 606.515 C 417.623 608.803 394.892 615.002 378.667 617.532 C 369.285 618.995 307.607 620.496 306.402 619.291 Z M 514.077 340.501 C 485.905 305.297 472.242 287.224 473.13 286.336 C 474.018 285.448 482.484 285.948 498.501 287.835 C 530.416 291.594 528.302 291.754 527.288 285.667 C 510.174 182.919 411.145 110.04 306.616 123.267 C 263.334 128.744 237.541 137.269 210 155.2 C 204.867 158.542 200.271 161.289 199.788 161.305 C 198.884 161.334 161.209 110.084 158.73 105.451 C 156.53 101.34 157.913 99.808 171.754 91.021 C 217.012 62.289 269.464 48.154 332.667 47.657 C 363.429 47.415 406.693 55.614 432.667 66.608 C 447.241 72.777 471.077 85.488 481.333 92.561 C 488.3 97.365 496.325 102.859 499.167 104.77 C 508.183 110.832 540.612 144.178 550.286 157.333 C 578.649 195.905 597.068 241.455 602.717 287 C 603.684 294.794 604.931 300.001 605.831 300.002 C 608.272 300.005 653.611 305.215 658.333 306.035 C 665.808 307.333 669.552 303.946 594.396 363.878 C 574.08 380.079 557.211 393.333 556.908 393.333 C 556.605 393.333 537.331 369.559 514.077 340.501 Z" id="path1174"/>
      <path style="stroke-width: 1.33333;" d="M 313.333 622.384 C 287.849 619.73 251.805 612.53 240 607.734 C 238.167 606.989 233.367 605.297 229.333 603.975 C 215.072 599.297 185.409 585.304 182.612 581.934 C 181.729 580.87 180.267 580 179.362 580 C 178.457 580 175.081 577.997 171.858 575.549 C 168.636 573.101 161.8 568.197 156.667 564.651 C 140.036 553.162 113.838 526.915 100.789 508.667 C 93.396 498.329 86.489 487.758 85.612 485.438 C 85.174 484.281 82.538 479.733 79.754 475.333 C 76.97 470.933 74.686 466.701 74.679 465.928 C 74.672 465.156 73.188 461.556 71.382 457.928 C 63.158 441.417 55.002 414.12 50.492 388.014 C 46.752 366.368 46.324 321.41 49.698 304.667 C 50.88 298.8 52.222 290.966 52.68 287.259 L 53.512 280.518 L 41.756 275.04 C 11.807 261.085 7.141 258.972 4.333 258.093 C 2.152 257.41 1.333 256.126 1.333 253.386 C 1.333 249.316 1.101 249.469 14.667 244.625 C 29.64 239.277 41.9 234.703 44.667 233.432 C 46.133 232.758 50.333 231.188 54 229.943 C 57.667 228.698 66.667 225.39 74 222.591 C 87.768 217.337 103.372 211.549 118.975 205.91 C 133.701 200.588 134.164 200.917 141.658 222 C 144.264 229.333 147.132 237.133 148.031 239.333 C 150.997 246.594 151.701 248.476 160 271.333 C 164.526 283.8 168.782 295.2 169.458 296.667 C 177.002 313.041 181.347 330.771 178.621 334.055 C 176.306 336.844 174.11 336.023 139.345 319.372 C 134.217 316.917 129.657 315.134 129.209 315.41 C 124.679 318.21 127.999 381.52 133.331 394 C 133.957 395.467 135.742 400.867 137.297 406 C 145.132 431.864 165.6 464.481 186.662 484.667 C 204.636 501.892 205.491 502.667 206.537 502.667 C 207.086 502.667 208.944 504.167 210.667 506 C 212.389 507.833 214.696 509.333 215.794 509.333 C 216.892 509.333 218.87 510.311 220.191 511.506 C 223.419 514.428 254.325 528.772 261.56 530.706 C 264.735 531.555 268.233 532.705 269.333 533.261 C 270.433 533.818 277.633 535.302 285.333 536.56 C 293.033 537.817 302.033 539.624 305.333 540.575 C 308.633 541.526 316.133 542.452 322 542.633 C 327.867 542.814 335.667 543.071 339.333 543.203 C 343 543.335 349.3 543.007 353.333 542.473 C 357.367 541.94 363.52 541.177 367.008 540.778 C 370.496 540.379 378.096 538.841 383.897 537.36 C 402.38 532.64 400.045 529.883 412.673 571.333 C 414.684 577.933 417.531 586.633 419.001 590.667 C 425.094 607.384 424.21 609.418 409.053 613.563 C 379.029 621.774 341.07 625.271 313.333 622.384 Z M 378.667 617.532 C 394.892 615.002 417.623 608.803 419.066 606.515 C 420.272 604.604 415.611 588.403 401.656 546 C 398.659 536.894 398.426 536.732 391.087 538.659 C 350.392 549.346 313.287 548.42 266 535.537 C 252.093 531.748 223.171 518.21 213.874 511.139 C 211.605 509.412 209.307 508 208.767 508 C 206.927 508 195.58 498.022 181.425 483.957 C 150.165 452.895 130.393 412.07 125.266 368 C 123.572 353.436 124.173 319.077 126.215 313.752 L 127.333 310.837 L 137.333 315.248 C 142.833 317.675 152.733 322.194 159.333 325.291 C 175.163 332.719 177.113 333.435 177.927 332.119 C 178.686 330.89 174.47 318.719 160.104 280.667 C 154.843 266.733 149.635 252.933 148.529 250 C 138.737 224.032 133.333 209.124 133.333 208.075 C 133.333 204.298 119.895 208.203 85.333 222.023 C 82.767 223.05 71.367 227.288 60 231.441 C 22.114 245.284 6.109 251.672 5.617 253.148 C 5.349 253.952 8.626 256.204 12.898 258.151 C 21.697 262.162 33.275 267.467 46.033 273.333 C 50.818 275.533 55.318 277.333 56.033 277.333 C 57.84 277.333 57.693 279.269 54.801 293.52 C 37.019 381.157 68.644 479.304 134.822 541.859 C 146.258 552.669 173.713 573.669 183.255 578.905 C 188.096 581.561 195.782 585.198 196.696 585.265 C 197.053 585.291 202.628 587.966 209.087 591.21 C 231.34 602.386 239.485 605.09 275.422 613.23 C 285.004 615.4 295.77 617.527 299.346 617.956 C 302.922 618.386 306.097 618.986 306.402 619.291 C 307.607 620.496 369.285 618.995 378.667 617.532 Z M 458 546.639 L 418 528.225 L 417.644 494.112 C 417.448 475.351 417.148 459.896 416.978 459.77 C 416.299 459.268 321.376 457.295 266.667 456.647 C 189.123 455.728 168.057 454.702 166.203 451.755 C 165.156 450.089 167.266 432.887 174.382 385.088 C 179.657 349.656 184.129 318.567 184.32 316 L 184.667 311.333 L 227 311.657 C 250.283 311.836 269.333 311.769 269.333 311.509 C 269.333 311.248 267.495 306.903 265.247 301.851 C 258.902 287.589 257.91 285.226 254.671 276.667 C 253.006 272.267 251.16 267.467 250.569 266 C 240.305 240.524 240.621 189.437 251.126 176 C 251.986 174.9 253.777 171.846 255.107 169.213 C 258.855 161.791 271.786 149.191 281.341 143.651 C 289.412 138.972 293.351 137.312 305.428 133.502 C 312.787 131.18 340.219 131.604 349.128 134.177 C 356.99 136.448 371.445 143.758 377.547 148.548 C 385.118 154.493 386.18 155.518 390.794 161.333 C 396.281 168.248 402.323 179.075 406.047 188.667 C 409.829 198.405 409.595 234.834 405.657 249.333 C 400.918 266.784 389.654 297.11 383.471 309.068 C 382.295 311.341 381.333 313.531 381.333 313.934 C 381.333 314.337 395.913 314.667 413.733 314.667 C 448.521 314.667 449.333 314.823 449.333 321.513 C 449.333 323.519 449.999 326.849 450.813 328.913 C 452.499 333.191 455.793 346.4 456.903 353.333 C 457.313 355.9 458.125 358.6 458.705 359.333 C 459.286 360.067 460.158 363.067 460.643 366 C 461.128 368.933 462.005 372.533 462.592 374 C 463.179 375.467 464.727 381.278 466.031 386.915 C 469.382 401.388 468.348 400.935 483.941 394.754 C 491.463 391.773 498.603 389.363 499.808 389.399 C 501.014 389.435 519.7 396.201 541.333 404.435 L 580.667 419.405 L 580.667 473.805 L 580.667 528.205 L 540.3 546.769 C 518.099 556.979 499.499 565.27 498.967 565.193 C 498.435 565.116 480 556.766 458 546.639 Z M 495.272 550.767 C 495.691 550.088 495.632 529.793 495.14 505.666 L 494.246 461.798 L 490.123 459.977 C 487.855 458.975 473.183 452.271 457.519 445.078 C 441.854 437.885 428.504 432 427.852 432 C 427.184 432 426.667 451.637 426.667 477.013 L 426.667 522.026 L 459 536.905 C 492.252 552.206 493.975 552.865 495.272 550.767 Z M 539.405 537.03 L 572 522.061 L 572 476.364 C 572 451.23 571.662 430.667 571.25 430.667 C 570.837 430.667 558.387 436.401 543.583 443.41 C 528.779 450.419 513.817 457.465 510.333 459.069 L 504 461.984 L 504 506.992 C 504 537.629 504.448 552 505.405 552 C 506.177 552 521.477 545.264 539.405 537.03 Z M 531.027 439.76 C 548.459 431.549 562.529 424.253 562.294 423.547 C 562.058 422.842 547.866 416.946 530.755 410.445 L 499.644 398.627 L 467.842 410.98 C 450.351 417.774 436.228 423.933 436.459 424.667 C 436.783 425.698 495.744 454.04 498.667 454.57 C 499.033 454.636 513.596 447.972 531.027 439.76 Z M 417.333 438.18 C 417.333 427.234 416.963 425.229 414.333 421.931 C 412.683 419.862 409.533 415.669 407.333 412.613 C 405.133 409.556 397.944 399.918 391.358 391.194 C 384.771 382.471 377.271 372.287 374.691 368.564 C 360.907 348.674 357.39 349.37 338.079 375.818 C 327.699 390.033 324.73 390.447 315.953 378.899 L 310.05 371.132 L 293.358 377.001 C 284.178 380.229 268.267 385.575 258 388.88 C 247.733 392.185 233.633 396.898 226.667 399.354 C 219.7 401.81 206.481 406.293 197.291 409.318 C 188.101 412.342 179.968 415.233 179.218 415.741 C 177.787 416.712 173.012 443.735 173.991 445.32 C 174.302 445.823 200.531 446.717 232.278 447.308 C 264.025 447.899 305 448.786 323.333 449.28 C 341.667 449.773 370.317 450.287 387 450.422 L 417.333 450.667 L 417.333 438.18 Z M 442.228 411.716 C 454.375 406.965 459.992 404.116 459.975 402.716 C 459.943 400.074 441.89 329.445 441.026 328.581 C 440.402 327.958 373.544 350.012 372.307 351.249 C 371.769 351.787 377.432 359.603 411.053 404.727 C 416.765 412.394 422.117 418.667 422.947 418.667 C 423.777 418.667 432.453 415.539 442.228 411.716 Z M 201.454 399.227 C 211.288 395.868 222.44 391.346 224.64 390.774 C 232.977 388.609 237.551 386.766 236.5 385.028 C 235.711 383.722 203.279 340.376 194.922 329.386 C 192.533 326.244 192.451 327.142 188.729 350.674 C 186.816 362.77 184.342 378.367 183.232 385.333 C 182.123 392.3 180.956 399.65 180.641 401.667 C 179.883 406.507 180.271 406.462 201.454 399.227 Z M 331.454 379 C 333.528 376.25 335.909 373.4 336.744 372.667 C 337.58 371.933 340.904 367.433 344.132 362.667 C 347.359 357.9 350.75 353.208 351.666 352.239 C 352.582 351.271 354.889 347.821 356.792 344.572 C 358.696 341.324 360.676 338.667 361.192 338.667 C 362.273 338.667 373.333 320.56 373.333 318.792 C 373.333 318.147 374.177 317.295 375.208 316.899 C 376.238 316.504 377.486 314.34 377.98 312.09 C 378.474 309.841 379.318 308 379.856 308 C 380.928 308 386.667 295.523 386.667 293.193 C 386.667 292.396 387.548 290.152 388.625 288.206 C 391.646 282.747 396.916 269.187 398.017 264.044 C 398.561 261.501 399.478 258.501 400.056 257.377 C 406.13 245.557 408.292 204.215 403.51 191.333 C 393.253 163.707 371.838 142.762 348 137.04 C 339.44 134.985 310.64 134.16 308.881 135.919 C 308.103 136.697 306.005 137.333 304.218 137.333 C 302.431 137.333 295.866 139.883 289.629 143 C 256.902 159.353 239.5 196.266 246.415 234.667 C 248.694 247.322 252.497 263.305 253.395 264 C 253.868 264.367 254.695 266.467 255.231 268.667 C 256.37 273.343 259.111 280.002 262.746 286.931 C 264.169 289.643 265.333 292.599 265.333 293.5 C 265.333 298.172 296.523 347.546 300.359 352.694 C 304.195 357.842 309.065 364.592 311.181 367.694 C 313.298 370.796 315.281 372.534 315.968 373.546 C 316.655 374.558 316.587 373.987 317.226 374.999 C 318.278 376.664 324.283 384 326.171 384 C 327.003 384 329.38 381.75 331.454 379 Z M 316.118 244.235 C 302.204 238.947 292.396 222.423 295.743 209.908 C 304.513 177.116 345.602 176.569 355.987 209.106 C 359.828 221.137 352.012 235.841 338.199 242.57 C 328.766 247.165 324.646 247.476 316.118 244.235 Z M 331.955 241.743 C 354.512 233.32 360.058 212.423 344.214 195.557 C 328.638 178.977 298.47 191.907 298.217 215.272 C 298.102 225.865 307.52 238.175 317.679 240.711 C 319.703 241.216 321.688 242.162 322.091 242.814 C 323.141 244.512 325.112 244.298 331.955 241.743 Z M 275.636 373.813 C 290.136 368.943 302.457 364.556 303.016 364.064 C 303.575 363.571 301.65 359.905 298.739 355.917 C 295.827 351.929 292.431 346.867 291.191 344.667 C 289.951 342.467 282.11 331.804 279.801 328.089 L 275.601 321.333 L 258.679 321.333 C 249.372 321.333 232.662 320.94 221.545 320.458 C 205.797 319.777 201.333 319.952 201.333 321.25 C 201.333 322.167 207.224 330.811 214.425 340.459 C 221.625 350.106 231.573 363.55 236.531 370.333 C 241.49 377.117 246.385 382.667 247.41 382.667 C 248.434 382.667 261.136 378.683 275.636 373.813 Z M 390.752 335.336 C 405.005 330.571 416.817 326.671 417 326.669 C 417.183 326.668 417.333 326.067 417.333 325.333 C 417.333 324.5 409.322 324 395.967 324 L 374.601 324 L 370.967 330.254 C 368.969 333.694 365.983 337.813 364.333 339.407 C 357.482 346.027 359.882 345.657 390.752 335.336 Z M 550.343 390.333 C 547.457 387.217 541.921 380.467 538.042 375.333 C 534.163 370.2 526.086 360 520.093 352.667 C 506.56 336.107 507.334 337.073 499.325 326.755 C 495.663 322.038 490.424 315.738 487.683 312.755 C 484.942 309.773 482.692 306.988 482.683 306.566 C 482.674 306.145 479.967 302.322 476.667 298.073 C 466.078 284.437 468.817 281.286 488.983 283.902 C 513.508 287.083 525.333 288.311 525.333 287.676 C 525.333 284.576 516.666 254.76 513.994 248.667 C 509.291 237.944 500.965 220.828 500.049 220 C 499.644 219.633 496.36 214.881 492.752 209.439 C 473.092 179.786 432.117 147.625 401.019 137.437 C 398.279 136.54 395.693 135.249 395.273 134.569 C 394.853 133.89 393.08 133.333 391.333 133.333 C 389.587 133.333 387.826 132.797 387.42 132.141 C 387.015 131.485 384.43 130.651 381.675 130.288 C 378.92 129.925 372.767 128.973 368 128.174 C 336.859 122.952 317.189 123.502 275.851 130.75 C 256.938 134.066 228.076 146.176 209.603 158.547 C 197.716 166.508 199.714 167.819 179.318 138.667 C 175.983 133.9 171.923 128.218 170.294 126.04 C 168.666 123.861 164.483 118.276 161 113.627 C 151.8 101.348 152.115 100.498 170.045 89.228 C 175.203 85.986 180.603 82.576 182.045 81.651 C 195.254 73.171 225.011 61.426 249.015 55.217 C 363.285 25.658 475.619 60.337 545.762 146.825 C 550.293 152.412 554.731 158.112 555.625 159.492 C 556.518 160.871 559.244 165.026 561.682 168.724 C 576.693 191.493 591.21 222.575 596.705 243.711 C 597.795 247.903 599.269 253.133 599.98 255.333 C 601.227 259.19 605.219 283.462 605.848 291.01 C 606.413 297.796 604.893 297.344 638.667 300.768 C 651.5 302.069 662.75 303.702 663.667 304.397 C 666.786 306.761 665.53 311.681 661 314.842 C 656.048 318.298 643.297 328.288 639.333 331.818 C 637.867 333.124 632.467 337.436 627.333 341.4 C 622.2 345.365 612.3 353.247 605.333 358.917 C 576.924 382.037 558.741 396 557.044 396 C 556.244 396 553.229 393.45 550.343 390.333 Z M 594.396 363.878 C 669.552 303.946 665.808 307.333 658.333 306.035 C 653.611 305.215 608.272 300.005 605.831 300.002 C 604.931 300.001 603.684 294.794 602.717 287 C 597.068 241.455 578.649 195.905 550.286 157.333 C 540.612 144.178 508.183 110.832 499.167 104.77 C 496.325 102.859 488.3 97.365 481.333 92.561 C 471.077 85.488 447.241 72.777 432.667 66.608 C 406.693 55.614 363.429 47.415 332.667 47.657 C 269.464 48.154 217.012 62.289 171.754 91.021 C 157.913 99.808 156.53 101.34 158.73 105.451 C 161.209 110.084 198.884 161.334 199.788 161.305 C 200.271 161.289 204.867 158.542 210 155.2 C 237.541 137.269 263.334 128.744 306.616 123.267 C 411.145 110.04 510.174 182.919 527.288 285.667 C 528.302 291.754 530.416 291.594 498.501 287.835 C 482.484 285.948 474.018 285.448 473.13 286.336 C 472.002 287.465 554.896 393.333 556.908 393.333 C 557.211 393.333 574.08 380.079 594.396 363.878 Z" id="path1172"/>
      <path style="stroke: rgb(0, 0, 0);" d="M 204.56 362.492"/>
      <path style="stroke: rgb(0, 0, 0); fill: rgb(255, 255, 255);" d="M 192.9 327.508 L 180.251 406.115 L 237.575 386.238 L 192.9 327.508 Z"/>
    </g>
    <path style="fill: rgb(216, 216, 216); stroke: rgb(0, 0, 0);" d="M 340.483 521.525"/>
    <path style="stroke: rgb(0, 0, 0); fill: rgb(255, 255, 255);" d="M 473.747 364.903 L 543.282 342.033 L 562.785 417.49 L 525.056 433.162 C 523.372 433.583 473.044 365.079 473.747 364.903 Z"/>
    <path style="fill: rgb(216, 216, 216); stroke: rgb(0, 0, 0);" d="M 514.957 379.53"/>
    <path style="fill: rgb(216, 216, 216); stroke: rgb(0, 0, 0);" d="M 485.587 369.082"/>
    <path style="fill: rgb(216, 216, 216); stroke: rgb(0, 0, 0);" d="M 477.809 367.689"/>
    <path style="fill: rgb(216, 216, 216); stroke: rgb(0, 0, 0);" d="M 297.731 350.049"/>
    <path style="fill: rgb(216, 216, 216); stroke: rgb(0, 0, 0);" d="M 299.749 353.681"/>
  </g>
  <path style="stroke: rgb(0, 0, 0); fill: rgb(255, 255, 255);" d="M 325.287 316.609 L 372.631 297.22 L 419.793 316.156 L 371.819 339.604 L 325.287 316.609 Z"/>
  <path style="stroke: rgb(0, 0, 0); fill: rgb(255, 255, 255);" d="M 318.872 322.12 L 369.033 344.621 L 369.567 412.403 L 318.161 389.901 L 318.872 322.12 Z"/>
  <path style="stroke: rgb(0, 0, 0); fill: rgb(255, 255, 255);" d="M 376.506 412.046 L 375.883 344.276 L 426.133 321.151 L 426.31 389.189 L 376.506 412.046 Z"/>
</svg>